name C:\Users\u0101727\Documents\MyRepositories\upper-imu-dc\Results\main_tracking\Case_31\kinematics.mot
datacolumns 10
datarows 23
range 3.50000000 3.72000000
endheader 
time	clav_prot	clav_elev	scapula_abduction	scapula_elevation	scapula_upward_rot	scapula_winging	plane_elv	shoulder_elv	axial_rot	
          3.50000000	        -44.43513669	          9.01598437	          0.88615585	         -1.64296225	         84.23896283	        -11.78495617	         37.87373549	         87.74045858	         -7.34270422	
          3.51000000	        -44.43700089	          9.03743869	          0.87033431	         -1.62978341	         84.22925007	        -11.79335015	         37.93111243	         87.70680291	         -7.29415377	
          3.52000000	        -44.43735115	          9.05814860	          0.85530187	         -1.61730424	         84.21696082	        -11.80102058	         37.98263162	         87.67192606	         -7.26327425	
          3.53000000	        -44.43597036	          9.07701670	          0.84193611	         -1.60621060	         84.20240920	        -11.80749304	         38.02735895	         87.63584993	         -7.25175257	
          3.54000000	        -44.43265284	          9.09296185	          0.83111918	         -1.59717366	         84.18594466	        -11.81230019	         38.06480338	         87.59861782	         -7.25827399	
          3.55000000	        -44.42729141	          9.10497784	          0.82352083	         -1.59082657	         84.16788173	        -11.81506547	         38.09506023	         87.56032076	         -7.27854356	
          3.56000000	        -44.41998084	          9.11221069	          0.81936877	         -1.58772673	         84.14845542	        -11.81559710	         38.11889380	         87.52110222	         -7.30588537	
          3.57000000	        -44.41108626	          9.11405450	          0.81830322	         -1.58829752	         84.12781505	        -11.81395668	         38.13769317	         87.48114856	         -7.33228605	
          3.58000000	        -44.40122373	          9.11024815	          0.81941200	         -1.59275679	         84.10605811	        -11.81046338	         38.15325757	         87.44067986	         -7.34962444	
          3.59000000	        -44.39113059	          9.10093394	          0.82148691	         -1.60105764	         84.08329520	        -11.80561159	         38.16742760	         87.39995245	         -7.35081855	
          3.60000000	        -44.38145863	          9.08663908	          0.82343615	         -1.61287413	         84.05972166	        -11.79991888	         38.18165919	         87.35927541	         -7.33069639	
          3.61000000	        -44.37256835	          9.06817590	          0.82469296	         -1.62764571	         84.03566053	        -11.79376064	         38.19668506	         87.31903510	         -7.28649257	
          3.62000000	        -44.36440736	          9.04650527	          0.82544640	         -1.64466115	         84.01154924	        -11.78726105	         38.21238191	         87.27971571	         -7.21795450	
          3.63000000	        -44.35651817	          9.02262325	          0.82660304	         -1.66314487	         83.98787064	        -11.78028396	         38.22787535	         87.24189854	         -7.12711464	
          3.64000000	        -44.34816863	          8.99750180	          0.82950629	         -1.68232026	         83.96505864	        -11.77252094	         38.24183047	         87.20622262	         -7.01783849	
          3.65000000	        -44.33855848	          8.97207431	          0.83552456	         -1.70144762	         83.94341565	        -11.76363700	         38.25283139	         87.17330279	         -6.89527537	
          3.66000000	        -44.32703459	          8.94723971	          0.84565071	         -1.71984502	         83.92307006	        -11.75341863	         38.25974091	         87.14361827	         -6.76532398	
          3.67000000	        -44.31325442	          8.92386240	          0.86023850	         -1.73689990	         83.90399556	        -11.74187552	         38.26194472	         87.11738528	         -6.63418374	
          3.68000000	        -44.29725586	          8.90274724	          0.87894979	         -1.75208211	         83.88608941	        -11.72926411	         38.25943140	         87.09443679	         -6.50800330	
          3.69000000	        -44.27944293	          8.88458060	          0.90087428	         -1.76496955	         83.86927848	        -11.71604270	         38.25274743	         87.07413191	         -6.39260945	
          3.70000000	        -44.26051635	          8.86983849	          0.92472419	         -1.77529581	         83.85359008	        -11.70278853	         38.24291403	         87.05533691	         -6.29331476	
          3.71000000	        -44.24135505	          8.85867595	          0.94903591	         -1.78301958	         83.83911723	        -11.69009731	         38.23136498	         87.03654039	         -6.21481466	
          3.72000000	        -44.22288153	          8.85085253	          0.97231036	         -1.78838110	         83.82587917	        -11.67850077	         38.21992433	         87.01608255	         -6.16115677	
